<?xml version="1.0" encoding="UTF-8" standalone="no"?>
<svg
   xmlns:dc="http://purl.org/dc/elements/1.1/"
   xmlns:cc="http://creativecommons.org/ns#"
   xmlns:rdf="http://www.w3.org/1999/02/22-rdf-syntax-ns#"
   xmlns:svg="http://www.w3.org/2000/svg"
   xmlns="http://www.w3.org/2000/svg"
   viewBox="0 0 1122.528 793.72803"
   height="793.72803"
   width="1122.528"
   xml:space="preserve"
   id="svg2"
   version="1.1"><metadata
     id="metadata8"><rdf:RDF><cc:Work
         rdf:about=""><dc:format>image/svg+xml</dc:format><dc:type
           rdf:resource="http://purl.org/dc/dcmitype/StillImage" /></cc:Work></rdf:RDF></metadata><defs
     id="defs6" /><g
     transform="matrix(0.0096,0,0,-0.0096,0,793.728)"
     id="g10"><path
       id="path12"
       style="fill:#000000;fill-opacity:1;fill-rule:nonzero;stroke:none"
       d="M 87796.1,38979.2 H 72441.8 V 24215.4 h 15354.3 z" /><path
       id="path14"
       style="fill:#ffffff;fill-opacity:1;fill-rule:nonzero;stroke:#ffffff;stroke-width:0.0003937;stroke-linecap:round;stroke-linejoin:round;stroke-miterlimit:10;stroke-dasharray:none;stroke-opacity:1"
       d="m 78645.6,33209.5 5.8,-29.4 16.6,-24.9 24.9,-16.6 29.4,-5.8 h 844.5 l 29.4,5.8 24.9,16.6 16.6,24.9 5.9,29.4 v 153.6 l -5.9,29.3 -16.6,25 -24.9,16.6 -29.4,5.8 h -844.5 l -29.4,-5.8 -24.9,-16.6 -16.6,-25 -5.8,-29.3 z" /><path
       id="path16"
       style="fill:#ffffff;fill-opacity:1;fill-rule:nonzero;stroke:#ffffff;stroke-width:0.0003937;stroke-linecap:round;stroke-linejoin:round;stroke-miterlimit:10;stroke-dasharray:none;stroke-opacity:1"
       d="m 78645.6,32709.5 5.8,-29.4 16.6,-24.9 24.9,-16.6 29.4,-5.8 h 844.5 l 29.4,5.8 24.9,16.6 16.6,24.9 5.9,29.4 v 153.6 l -5.9,29.3 -16.6,25 -24.9,16.6 -29.4,5.8 h -844.5 l -29.4,-5.8 -24.9,-16.6 -16.6,-25 -5.8,-29.3 z" /><path
       id="path18"
       style="fill:#ffffff;fill-opacity:1;fill-rule:nonzero;stroke:#ffffff;stroke-width:0.0003937;stroke-linecap:round;stroke-linejoin:round;stroke-miterlimit:10;stroke-dasharray:none;stroke-opacity:1"
       d="m 78645.6,32209.5 5.8,-29.4 16.6,-24.9 24.9,-16.6 29.4,-5.8 h 844.5 l 29.4,5.8 24.9,16.6 16.6,24.9 5.9,29.4 v 153.6 l -5.9,29.4 -16.6,24.9 -24.9,16.6 -29.4,5.8 h -844.5 l -29.4,-5.8 -24.9,-16.6 -16.6,-24.9 -5.8,-29.4 z" /><path
       id="path20"
       style="fill:#ffffff;fill-opacity:1;fill-rule:nonzero;stroke:#ffffff;stroke-width:0.0003937;stroke-linecap:round;stroke-linejoin:round;stroke-miterlimit:10;stroke-dasharray:none;stroke-opacity:1"
       d="m 78645.6,31709.5 5.8,-29.4 16.6,-24.9 24.9,-16.6 29.4,-5.8 h 844.5 l 29.4,5.8 24.9,16.6 16.6,24.9 5.9,29.4 v 153.6 l -5.9,29.4 -16.6,24.9 -24.9,16.6 -29.4,5.8 h -844.5 l -29.4,-5.8 -24.9,-16.6 -16.6,-24.9 -5.8,-29.4 z" /><path
       id="path22"
       style="fill:#ffffff;fill-opacity:1;fill-rule:nonzero;stroke:#ffffff;stroke-width:0.0003937;stroke-linecap:round;stroke-linejoin:round;stroke-miterlimit:10;stroke-dasharray:none;stroke-opacity:1"
       d="m 78645.6,31209.5 5.8,-29.4 16.6,-24.9 24.9,-16.6 29.4,-5.8 h 844.5 l 29.4,5.8 24.9,16.6 16.6,24.9 5.9,29.4 v 153.6 l -5.9,29.4 -16.6,24.9 -24.9,16.6 -29.4,5.8 h -844.5 l -29.4,-5.8 -24.9,-16.6 -16.6,-24.9 -5.8,-29.4 z" /><path
       id="path24"
       style="fill:#ffffff;fill-opacity:1;fill-rule:nonzero;stroke:#ffffff;stroke-width:0.0003937;stroke-linecap:round;stroke-linejoin:round;stroke-miterlimit:10;stroke-dasharray:none;stroke-opacity:1"
       d="m 78645.6,30709.5 5.8,-29.4 16.6,-24.9 24.9,-16.6 29.4,-5.8 h 844.5 l 29.4,5.8 24.9,16.6 16.6,24.9 5.9,29.4 v 153.6 l -5.9,29.4 -16.6,24.9 -24.9,16.6 -29.4,5.8 h -844.5 l -29.4,-5.8 -24.9,-16.6 -16.6,-24.9 -5.8,-29.4 z" /><path
       id="path26"
       style="fill:#ffffff;fill-opacity:1;fill-rule:nonzero;stroke:#ffffff;stroke-width:0.0003937;stroke-linecap:round;stroke-linejoin:round;stroke-miterlimit:10;stroke-dasharray:none;stroke-opacity:1"
       d="m 78645.6,30209.5 5.8,-29.4 16.6,-24.9 24.9,-16.6 29.4,-5.8 h 844.5 l 29.4,5.8 24.9,16.6 16.6,24.9 5.9,29.4 v 153.6 l -5.9,29.4 -16.6,24.9 -24.9,16.6 -29.4,5.8 h -844.5 l -29.4,-5.8 -24.9,-16.6 -16.6,-24.9 -5.8,-29.4 z" /><path
       id="path28"
       style="fill:#ffffff;fill-opacity:1;fill-rule:nonzero;stroke:#ffffff;stroke-width:0.0003937;stroke-linecap:round;stroke-linejoin:round;stroke-miterlimit:10;stroke-dasharray:none;stroke-opacity:1"
       d="m 78645.6,29709.5 5.8,-29.4 16.6,-24.9 24.9,-16.6 29.4,-5.8 h 844.5 l 29.4,5.8 24.9,16.6 16.6,24.9 5.9,29.4 v 153.6 l -5.9,29.4 -16.6,24.9 -24.9,16.6 -29.4,5.8 h -844.5 l -29.4,-5.8 -24.9,-16.6 -16.6,-24.9 -5.8,-29.4 z" /><path
       id="path30"
       style="fill:#ffffff;fill-opacity:1;fill-rule:nonzero;stroke:#ffffff;stroke-width:0.0003937;stroke-linecap:round;stroke-linejoin:round;stroke-miterlimit:10;stroke-dasharray:none;stroke-opacity:1"
       d="m 80594.4,29709.5 5.8,-29.4 16.7,-24.9 24.9,-16.6 29.3,-5.8 h 844.5 l 29.4,5.8 24.9,16.6 16.7,24.9 5.8,29.4 v 153.6 l -5.8,29.4 -16.7,24.9 -24.9,16.6 -29.4,5.8 h -844.5 l -29.3,-5.8 -24.9,-16.6 -16.7,-24.9 -5.8,-29.4 z" /><path
       id="path32"
       style="fill:#ffffff;fill-opacity:1;fill-rule:nonzero;stroke:#ffffff;stroke-width:0.0003937;stroke-linecap:round;stroke-linejoin:round;stroke-miterlimit:10;stroke-dasharray:none;stroke-opacity:1"
       d="m 80594.4,30209.5 5.8,-29.4 16.7,-24.9 24.9,-16.6 29.3,-5.8 h 844.5 l 29.4,5.8 24.9,16.6 16.7,24.9 5.8,29.4 v 153.6 l -5.8,29.4 -16.7,24.9 -24.9,16.6 -29.4,5.8 h -844.5 l -29.3,-5.8 -24.9,-16.6 -16.7,-24.9 -5.8,-29.4 z" /><path
       id="path34"
       style="fill:#ffffff;fill-opacity:1;fill-rule:nonzero;stroke:#ffffff;stroke-width:0.0003937;stroke-linecap:round;stroke-linejoin:round;stroke-miterlimit:10;stroke-dasharray:none;stroke-opacity:1"
       d="m 80594.4,30709.5 5.8,-29.4 16.7,-24.9 24.9,-16.6 29.3,-5.8 h 844.5 l 29.4,5.8 24.9,16.6 16.7,24.9 5.8,29.4 v 153.6 l -5.8,29.4 -16.7,24.9 -24.9,16.6 -29.4,5.8 h -844.5 l -29.3,-5.8 -24.9,-16.6 -16.7,-24.9 -5.8,-29.4 z" /><path
       id="path36"
       style="fill:#ffffff;fill-opacity:1;fill-rule:nonzero;stroke:#ffffff;stroke-width:0.0003937;stroke-linecap:round;stroke-linejoin:round;stroke-miterlimit:10;stroke-dasharray:none;stroke-opacity:1"
       d="m 80594.4,31209.5 5.8,-29.4 16.7,-24.9 24.9,-16.6 29.3,-5.8 h 844.5 l 29.4,5.8 24.9,16.6 16.7,24.9 5.8,29.4 v 153.6 l -5.8,29.4 -16.7,24.9 -24.9,16.6 -29.4,5.8 h -844.5 l -29.3,-5.8 -24.9,-16.6 -16.7,-24.9 -5.8,-29.4 z" /><path
       id="path38"
       style="fill:#ffffff;fill-opacity:1;fill-rule:nonzero;stroke:#ffffff;stroke-width:0.0003937;stroke-linecap:round;stroke-linejoin:round;stroke-miterlimit:10;stroke-dasharray:none;stroke-opacity:1"
       d="m 80594.4,31709.5 5.8,-29.4 16.7,-24.9 24.9,-16.6 29.3,-5.8 h 844.5 l 29.4,5.8 24.9,16.6 16.7,24.9 5.8,29.4 v 153.6 l -5.8,29.4 -16.7,24.9 -24.9,16.6 -29.4,5.8 h -844.5 l -29.3,-5.8 -24.9,-16.6 -16.7,-24.9 -5.8,-29.4 z" /><path
       id="path40"
       style="fill:#ffffff;fill-opacity:1;fill-rule:nonzero;stroke:#ffffff;stroke-width:0.0003937;stroke-linecap:round;stroke-linejoin:round;stroke-miterlimit:10;stroke-dasharray:none;stroke-opacity:1"
       d="m 80594.4,32209.5 5.8,-29.4 16.7,-24.9 24.9,-16.6 29.3,-5.8 h 844.5 l 29.4,5.8 24.9,16.6 16.7,24.9 5.8,29.4 v 153.6 l -5.8,29.4 -16.7,24.9 -24.9,16.6 -29.4,5.8 h -844.5 l -29.3,-5.8 -24.9,-16.6 -16.7,-24.9 -5.8,-29.4 z" /><path
       id="path42"
       style="fill:#ffffff;fill-opacity:1;fill-rule:nonzero;stroke:#ffffff;stroke-width:0.0003937;stroke-linecap:round;stroke-linejoin:round;stroke-miterlimit:10;stroke-dasharray:none;stroke-opacity:1"
       d="m 80594.4,32709.5 5.8,-29.4 16.7,-24.9 24.9,-16.6 29.3,-5.8 h 844.5 l 29.4,5.8 24.9,16.6 16.7,24.9 5.8,29.4 v 153.6 l -5.8,29.3 -16.7,25 -24.9,16.6 -29.4,5.8 h -844.5 l -29.3,-5.8 -24.9,-16.6 -16.7,-25 -5.8,-29.3 z" /><path
       id="path44"
       style="fill:#ffffff;fill-opacity:1;fill-rule:nonzero;stroke:#ffffff;stroke-width:0.0003937;stroke-linecap:round;stroke-linejoin:round;stroke-miterlimit:10;stroke-dasharray:none;stroke-opacity:1"
       d="m 80594.4,33209.5 5.8,-29.4 16.7,-24.9 24.9,-16.6 29.3,-5.8 h 844.5 l 29.4,5.8 24.9,16.6 16.7,24.9 5.8,29.4 v 153.6 l -5.8,29.3 -16.7,25 -24.9,16.6 -29.4,5.8 h -844.5 l -29.3,-5.8 -24.9,-16.6 -16.7,-25 -5.8,-29.3 z" /><path
       id="path46"
       style="fill:none;stroke:#ffffff;stroke-width:787.40197754;stroke-linecap:round;stroke-linejoin:round;stroke-miterlimit:10;stroke-dasharray:none;stroke-opacity:1"
       d="m 82330,33078.4 v -196.8" /><path
       id="path48"
       style="fill:none;stroke:#ffffff;stroke-width:787.40197754;stroke-linecap:round;stroke-linejoin:round;stroke-miterlimit:10;stroke-dasharray:none;stroke-opacity:1"
       d="m 82330,30078.4 v -196.8" /><path
       id="path50"
       style="fill:none;stroke:#ffffff;stroke-width:787.40197754;stroke-linecap:round;stroke-linejoin:round;stroke-miterlimit:10;stroke-dasharray:none;stroke-opacity:1"
       d="m 82428.4,34195.7 h -196.8" /><path
       id="path52"
       style="fill:#ffffff;fill-opacity:1;fill-rule:nonzero;stroke:#ffffff;stroke-width:0.0003937;stroke-linecap:round;stroke-linejoin:round;stroke-miterlimit:10;stroke-dasharray:none;stroke-opacity:1"
       d="m 81837.9,34786.3 h 984.2 v 787.4 h -984.2 z" /><path
       id="path54"
       style="fill:#ffffff;fill-opacity:1;fill-rule:nonzero;stroke:#ffffff;stroke-width:0.0003937;stroke-linecap:round;stroke-linejoin:round;stroke-miterlimit:10;stroke-dasharray:none;stroke-opacity:1"
       d="m 83563.9,35435.9 v -787.4 h 984.2 v 787.4 z" /><path
       id="path56"
       style="fill:none;stroke:#ffffff;stroke-width:787.40197754;stroke-linecap:round;stroke-linejoin:round;stroke-miterlimit:10;stroke-dasharray:none;stroke-opacity:1"
       d="m 83957.6,34042.2 h 196.8" /><path
       id="path58"
       style="fill:none;stroke:#ffffff;stroke-width:787.40197754;stroke-linecap:round;stroke-linejoin:round;stroke-miterlimit:10;stroke-dasharray:none;stroke-opacity:1"
       d="m 83957.6,33042.2 h 196.8" /><path
       id="path60"
       style="fill:none;stroke:#ffffff;stroke-width:787.40197754;stroke-linecap:round;stroke-linejoin:round;stroke-miterlimit:10;stroke-dasharray:none;stroke-opacity:1"
       d="m 83957.6,32042.2 h 196.8" /><path
       id="path62"
       style="fill:none;stroke:#ffffff;stroke-width:787.40197754;stroke-linecap:round;stroke-linejoin:round;stroke-miterlimit:10;stroke-dasharray:none;stroke-opacity:1"
       d="m 83957.6,31042.2 h 196.8" /><path
       id="path64"
       style="fill:none;stroke:#ffffff;stroke-width:787.40197754;stroke-linecap:round;stroke-linejoin:round;stroke-miterlimit:10;stroke-dasharray:none;stroke-opacity:1"
       d="m 83957.6,30042.2 h 196.8" /><path
       id="path66"
       style="fill:none;stroke:#ffffff;stroke-width:787.40197754;stroke-linecap:round;stroke-linejoin:round;stroke-miterlimit:10;stroke-dasharray:none;stroke-opacity:1"
       d="m 83957.6,29042.2 h 196.8" /><path
       id="path68"
       style="fill:none;stroke:#ffffff;stroke-width:787.40197754;stroke-linecap:round;stroke-linejoin:round;stroke-miterlimit:10;stroke-dasharray:none;stroke-opacity:1"
       d="m 83957.6,28042.2 h 196.8" /><path
       id="path70"
       style="fill:none;stroke:#ffffff;stroke-width:787.40197754;stroke-linecap:round;stroke-linejoin:round;stroke-miterlimit:10;stroke-dasharray:none;stroke-opacity:1"
       d="m 76083.5,35042.2 h 196.9" /><path
       id="path72"
       style="fill:none;stroke:#ffffff;stroke-width:787.40197754;stroke-linecap:round;stroke-linejoin:round;stroke-miterlimit:10;stroke-dasharray:none;stroke-opacity:1"
       d="m 76083.5,34042.2 h 196.9" /><path
       id="path74"
       style="fill:none;stroke:#ffffff;stroke-width:787.40197754;stroke-linecap:round;stroke-linejoin:round;stroke-miterlimit:10;stroke-dasharray:none;stroke-opacity:1"
       d="m 76083.5,33042.2 h 196.9" /><path
       id="path76"
       style="fill:none;stroke:#ffffff;stroke-width:787.40197754;stroke-linecap:round;stroke-linejoin:round;stroke-miterlimit:10;stroke-dasharray:none;stroke-opacity:1"
       d="m 76083.5,32042.2 h 196.9" /><path
       id="path78"
       style="fill:none;stroke:#ffffff;stroke-width:787.40197754;stroke-linecap:round;stroke-linejoin:round;stroke-miterlimit:10;stroke-dasharray:none;stroke-opacity:1"
       d="m 76083.5,31042.2 h 196.9" /><path
       id="path80"
       style="fill:none;stroke:#ffffff;stroke-width:787.40197754;stroke-linecap:round;stroke-linejoin:round;stroke-miterlimit:10;stroke-dasharray:none;stroke-opacity:1"
       d="m 76083.5,30042.2 h 196.9" /><path
       id="path82"
       style="fill:none;stroke:#ffffff;stroke-width:787.40197754;stroke-linecap:round;stroke-linejoin:round;stroke-miterlimit:10;stroke-dasharray:none;stroke-opacity:1"
       d="m 76083.5,29042.2 h 196.9" /><path
       id="path84"
       style="fill:none;stroke:#ffffff;stroke-width:787.40197754;stroke-linecap:round;stroke-linejoin:round;stroke-miterlimit:10;stroke-dasharray:none;stroke-opacity:1"
       d="m 76083.5,28042.2 h 196.9" /><path
       id="path86"
       style="fill:none;stroke:#ffffff;stroke-width:314.96099854;stroke-linecap:round;stroke-linejoin:round;stroke-miterlimit:10;stroke-dasharray:none;stroke-opacity:1"
       d="m 76182,35042.2 h 985.8" /><path
       id="path88"
       style="fill:none;stroke:#ffffff;stroke-width:314.96099854;stroke-linecap:round;stroke-linejoin:round;stroke-miterlimit:10;stroke-dasharray:none;stroke-opacity:1"
       d="m 77167.8,35042.2 1755.9,-1755.9" /><path
       id="path90"
       style="fill:none;stroke:#ffffff;stroke-width:236.22000122;stroke-linecap:round;stroke-linejoin:round;stroke-miterlimit:10;stroke-dasharray:none;stroke-opacity:1"
       d="m 78923.7,33286.3 h 220.9" /><path
       id="path92"
       style="fill:none;stroke:#ffffff;stroke-width:314.96099854;stroke-linecap:round;stroke-linejoin:round;stroke-miterlimit:10;stroke-dasharray:none;stroke-opacity:1"
       d="M 78936.3,29786.3 77192.2,28042.2" /><path
       id="path94"
       style="fill:none;stroke:#ffffff;stroke-width:314.96099854;stroke-linecap:round;stroke-linejoin:round;stroke-miterlimit:10;stroke-dasharray:none;stroke-opacity:1"
       d="M 77192.2,28042.2 H 76182" /><path
       id="path96"
       style="fill:none;stroke:#ffffff;stroke-width:314.96099854;stroke-linecap:round;stroke-linejoin:round;stroke-miterlimit:10;stroke-dasharray:none;stroke-opacity:1"
       d="m 79144.6,29786.3 h -208.3" /><path
       id="path98"
       style="fill:none;stroke:#ffffff;stroke-width:314.96099854;stroke-linecap:round;stroke-linejoin:round;stroke-miterlimit:10;stroke-dasharray:none;stroke-opacity:1"
       d="M 77182,34042.2 H 76182" /><path
       id="path100"
       style="fill:none;stroke:#ffffff;stroke-width:314.96099854;stroke-linecap:round;stroke-linejoin:round;stroke-miterlimit:10;stroke-dasharray:none;stroke-opacity:1"
       d="m 79144.6,32786.3 h -706.7" /><path
       id="path102"
       style="fill:none;stroke:#ffffff;stroke-width:314.96099854;stroke-linecap:round;stroke-linejoin:round;stroke-miterlimit:10;stroke-dasharray:none;stroke-opacity:1"
       d="M 78437.9,32786.3 77182,34042.2" /><path
       id="path104"
       style="fill:none;stroke:#ffffff;stroke-width:314.96099854;stroke-linecap:round;stroke-linejoin:round;stroke-miterlimit:10;stroke-dasharray:none;stroke-opacity:1"
       d="M 77223.7,31786.3 76930,32080" /><path
       id="path106"
       style="fill:none;stroke:#ffffff;stroke-width:236.22000122;stroke-linecap:round;stroke-linejoin:round;stroke-miterlimit:10;stroke-dasharray:none;stroke-opacity:1"
       d="m 76219.8,32080 -37.8,-37.8" /><path
       id="path108"
       style="fill:none;stroke:#ffffff;stroke-width:314.96099854;stroke-linecap:round;stroke-linejoin:round;stroke-miterlimit:10;stroke-dasharray:none;stroke-opacity:1"
       d="M 79144.6,31786.3 H 77223.7" /><path
       id="path110"
       style="fill:none;stroke:#ffffff;stroke-width:314.96099854;stroke-linecap:round;stroke-linejoin:round;stroke-miterlimit:10;stroke-dasharray:none;stroke-opacity:1"
       d="m 76930,32080 h -710.2" /><path
       id="path112"
       style="fill:none;stroke:#ffffff;stroke-width:314.96099854;stroke-linecap:round;stroke-linejoin:round;stroke-miterlimit:10;stroke-dasharray:none;stroke-opacity:1"
       d="m 77756.8,32286.3 -755.9,755.9" /><path
       id="path114"
       style="fill:none;stroke:#ffffff;stroke-width:314.96099854;stroke-linecap:round;stroke-linejoin:round;stroke-miterlimit:10;stroke-dasharray:none;stroke-opacity:1"
       d="M 79144.6,32286.3 H 77756.8" /><path
       id="path116"
       style="fill:none;stroke:#ffffff;stroke-width:314.96099854;stroke-linecap:round;stroke-linejoin:round;stroke-miterlimit:10;stroke-dasharray:none;stroke-opacity:1"
       d="M 77000.9,33042.2 H 76182" /><path
       id="path118"
       style="fill:none;stroke:#ffffff;stroke-width:314.96099854;stroke-linecap:round;stroke-linejoin:round;stroke-miterlimit:10;stroke-dasharray:none;stroke-opacity:1"
       d="m 77831.6,30786.3 -744.1,-744.1" /><path
       id="path120"
       style="fill:none;stroke:#ffffff;stroke-width:314.96099854;stroke-linecap:round;stroke-linejoin:round;stroke-miterlimit:10;stroke-dasharray:none;stroke-opacity:1"
       d="M 77087.5,30042.2 H 76182" /><path
       id="path122"
       style="fill:none;stroke:#ffffff;stroke-width:314.96099854;stroke-linecap:round;stroke-linejoin:round;stroke-miterlimit:10;stroke-dasharray:none;stroke-opacity:1"
       d="m 79144.6,30786.3 h -1313" /><path
       id="path124"
       style="fill:none;stroke:#ffffff;stroke-width:314.96099854;stroke-linecap:round;stroke-linejoin:round;stroke-miterlimit:10;stroke-dasharray:none;stroke-opacity:1"
       d="M 79144.6,31286.3 H 77150.5" /><path
       id="path126"
       style="fill:none;stroke:#ffffff;stroke-width:314.96099854;stroke-linecap:round;stroke-linejoin:round;stroke-miterlimit:10;stroke-dasharray:none;stroke-opacity:1"
       d="M 76906.4,31042.2 H 76182" /><path
       id="path128"
       style="fill:none;stroke:#ffffff;stroke-width:314.96099854;stroke-linecap:round;stroke-linejoin:round;stroke-miterlimit:10;stroke-dasharray:none;stroke-opacity:1"
       d="m 77150.5,31286.3 -244.1,-244.1" /><path
       id="path130"
       style="fill:none;stroke:#ffffff;stroke-width:314.96099854;stroke-linecap:round;stroke-linejoin:round;stroke-miterlimit:10;stroke-dasharray:none;stroke-opacity:1"
       d="M 77071.7,29042.2 H 76182" /><path
       id="path132"
       style="fill:none;stroke:#ffffff;stroke-width:314.96099854;stroke-linecap:round;stroke-linejoin:round;stroke-miterlimit:10;stroke-dasharray:none;stroke-opacity:1"
       d="m 79144.6,30286.3 h -828.8" /><path
       id="path134"
       style="fill:none;stroke:#ffffff;stroke-width:314.96099854;stroke-linecap:round;stroke-linejoin:round;stroke-miterlimit:10;stroke-dasharray:none;stroke-opacity:1"
       d="M 78315.8,30286.3 77071.7,29042.2" /><path
       id="path136"
       style="fill:none;stroke:#ffffff;stroke-width:393.70098877;stroke-linecap:round;stroke-linejoin:round;stroke-miterlimit:10;stroke-dasharray:none;stroke-opacity:1"
       d="m 82330,34195.7 h 1572.4" /><path
       id="path138"
       style="fill:none;stroke:#ffffff;stroke-width:393.70098877;stroke-linecap:round;stroke-linejoin:round;stroke-miterlimit:10;stroke-dasharray:none;stroke-opacity:1"
       d="m 84056,35042.2 v -1000" /><path
       id="path140"
       style="fill:none;stroke:#ffffff;stroke-width:393.70098877;stroke-linecap:round;stroke-linejoin:round;stroke-miterlimit:10;stroke-dasharray:none;stroke-opacity:1"
       d="M 82330,34195.7 V 32980" /><path
       id="path142"
       style="fill:none;stroke:#ffffff;stroke-width:393.70098877;stroke-linecap:round;stroke-linejoin:round;stroke-miterlimit:10;stroke-dasharray:none;stroke-opacity:1"
       d="m 83902.4,34195.7 153.6,-153.5" /><path
       id="path144"
       style="fill:none;stroke:#ffffff;stroke-width:393.70098877;stroke-linecap:round;stroke-linejoin:round;stroke-miterlimit:10;stroke-dasharray:none;stroke-opacity:1"
       d="m 82430,32980 h -100" /><path
       id="path146"
       style="fill:none;stroke:#ffffff;stroke-width:236.22000122;stroke-linecap:round;stroke-linejoin:round;stroke-miterlimit:10;stroke-dasharray:none;stroke-opacity:1"
       d="M 82023.7,30286.3 82330,29980" /><path
       id="path148"
       style="fill:none;stroke:#ffffff;stroke-width:314.96099854;stroke-linecap:round;stroke-linejoin:round;stroke-miterlimit:10;stroke-dasharray:none;stroke-opacity:1"
       d="m 82330,29980 h 1663.8" /><path
       id="path150"
       style="fill:none;stroke:#ffffff;stroke-width:236.22000122;stroke-linecap:round;stroke-linejoin:round;stroke-miterlimit:10;stroke-dasharray:none;stroke-opacity:1"
       d="m 83993.8,29980 62.2,62.2" /><path
       id="path152"
       style="fill:none;stroke:#ffffff;stroke-width:314.96099854;stroke-linecap:round;stroke-linejoin:round;stroke-miterlimit:10;stroke-dasharray:none;stroke-opacity:1"
       d="m 81093.4,30286.3 h 930.3" /><path
       id="path154"
       style="fill:none;stroke:#ffffff;stroke-width:236.22000122;stroke-linecap:round;stroke-linejoin:round;stroke-miterlimit:10;stroke-dasharray:none;stroke-opacity:1"
       d="m 84056,31042.2 -255.9,-255.9" /><path
       id="path156"
       style="fill:none;stroke:#ffffff;stroke-width:314.96099854;stroke-linecap:round;stroke-linejoin:round;stroke-miterlimit:10;stroke-dasharray:none;stroke-opacity:1"
       d="M 83800.1,30786.3 H 81093.4" /><path
       id="path158"
       style="fill:none;stroke:#ffffff;stroke-width:314.96099854;stroke-linecap:round;stroke-linejoin:round;stroke-miterlimit:10;stroke-dasharray:none;stroke-opacity:1"
       d="M 82936.3,31286.3 H 81093.4" /><path
       id="path160"
       style="fill:none;stroke:#ffffff;stroke-width:314.96099854;stroke-linecap:round;stroke-linejoin:round;stroke-miterlimit:10;stroke-dasharray:none;stroke-opacity:1"
       d="m 83692.2,32042.2 -755.9,-755.9" /><path
       id="path162"
       style="fill:none;stroke:#ffffff;stroke-width:236.22000122;stroke-linecap:round;stroke-linejoin:round;stroke-miterlimit:10;stroke-dasharray:none;stroke-opacity:1"
       d="m 84056,32042.2 h -363.8" /><path
       id="path164"
       style="fill:none;stroke:#ffffff;stroke-width:314.96099854;stroke-linecap:round;stroke-linejoin:round;stroke-miterlimit:10;stroke-dasharray:none;stroke-opacity:1"
       d="M 83692.2,33042.2 82436.3,31786.3" /><path
       id="path166"
       style="fill:none;stroke:#ffffff;stroke-width:236.22000122;stroke-linecap:round;stroke-linejoin:round;stroke-miterlimit:10;stroke-dasharray:none;stroke-opacity:1"
       d="m 84056,33042.2 h -363.8" /><path
       id="path168"
       style="fill:none;stroke:#ffffff;stroke-width:314.96099854;stroke-linecap:round;stroke-linejoin:round;stroke-miterlimit:10;stroke-dasharray:none;stroke-opacity:1"
       d="M 82436.3,31786.3 H 81093.4" /><path
       id="path170"
       style="fill:#ffffff;fill-opacity:1;fill-rule:nonzero;stroke:none"
       d="m 75220.3,36215.4 -18,-20.8 -4.4,-20.3 v -9153.9 l 7.8,-26.4 20.8,-18.1 20.2,-4.4 h 9547.7 l 26.4,7.8 18,20.8 4.4,20.3 V 29714 l -7.8,26.4 -20.8,18 -27.2,4 -25,-11.5 -10.3,-12.5 -39.8,-68.9 v 0 0 l -53.5,-69.7 v 0 l -62,-62 v 0 l -69.6,-53.4 -76,-43.9 -51.2,-21.2 -17.1,-7.1 -12.8,-5.3 -84.8,-22.7 -87,-11.5 v 0 h -284.6 v 0 l -87,11.5 -84.8,22.7 -81.1,33.6 -76,43.9 -68.1,52.2 -25.7,10 -4.1,0.1 h -549 l -26.4,-7.7 -15.9,-16.7 -7.7,-13.5 v 0 0 l -53.5,-69.6 v 0 l -62,-62.1 v 0 l -27.1,-20.7 -42.6,-32.7 -76,-43.9 -81,-33.5 -84.8,-22.8 -87,-11.4 v 0 h -87.8 v 0 l -87,11.4 -84.8,22.8 -81,33.5 -76,43.9 -69.7,53.4 -62,62.1 -53.5,69.6 -43.8,76 -33.6,81.1 -22.7,84.8 -7.9,59.9 -11.1,25.1 -23,15.2 -14.3,2.1 h -556.4 l -21.1,3.4 -7.6,0.6 h -384.1 v 0 l -30.8,2.4 -71.6,19.2 -66,33.6 v 0 0 l -38.4,31.1 -19.2,15.6 -25.3,31.2 -21.4,26.4 v 0 l -7.6,14.9 -26,51.1 -19.2,71.6 -2.4,30.8 v 202.8 l 2.4,30.8 15.6,58.1 3.6,13.5 6.2,12.1 6,11.9 5.1,27.1 -5.1,17.3 -9.3,18.2 -2.9,5.8 -19.2,71.6 -2.4,30.8 v 202.8 l 2.4,30.8 19.2,71.6 v 0 l 12.2,24 5.1,27.1 -5.1,17.3 -12.2,24 -1,3.6 -18.2,68 -2.4,30.8 v 202.8 l 2.4,30.8 9.6,35.8 9.6,35.8 6.2,12.1 6,11.9 5.1,27.1 -5.1,17.3 -9.3,18.2 -2.9,5.8 -19.2,71.6 -2.4,30.8 v 202.8 l 2.4,30.8 19.2,71.6 33.6,66 v 0 l 46.7,57.6 v 0 l 57.6,46.7 v 0 l 48,24.5 18,9.1 26.2,7 45.4,12.2 30.8,2.4 v 0 h 384.1 l 7.6,0.6 7.1,1.2 14,2.2 v 0 h 321.9 l 26.4,7.7 18,20.8 4.4,20.3 v 39.7 l -7.8,26.4 -20.7,18.1 -20.3,4.4 h -734.7 v 0 l -30.8,2.4 -71.6,19.2 -66,33.6 v 0 0 l -38.4,31.1 -19.2,15.6 -25.3,31.2 -21.4,26.4 v 0 l -7.8,15.3 -25.8,50.7 -19.2,71.6 -2.4,30.8 v 202.8 l 2.4,30.8 19.2,71.6 v 0 l 12.2,24 5.1,27.1 -5.1,17.3 -12.2,24 -1,3.6 -18.2,68 -2.4,30.8 v 202.8 0.1 h -399.2 v -202.9 -0.1 l -2.5,-30.7 v 0 l -19.1,-71.6 -12.3,-24 v 0 l -5.1,-27.1 5.1,-17.3 12.3,-24 19.1,-71.6 2.5,-30.7 v -202.9 -0.1 l -2.5,-30.7 v 0 l -19.1,-71.6 -3,-5.8 -9.3,-18.2 -5.1,-27.1 5.1,-17.3 12.3,-24 19.1,-71.6 2.5,-30.7 v -202.9 -0.1 l -2.5,-30.7 v 0 l -19.1,-71.6 -12.3,-24 -5.1,-27.1 5.1,-17.3 12.3,-24 19.1,-71.6 2.5,-30.7 v -202.9 -0.1 l -2.5,-30.7 v 0 l -19.1,-71.6 -3,-5.8 -9.3,-18.2 -5.1,-27.1 5.1,-17.3 12.3,-24 19.1,-71.6 2.5,-30.7 v -202.9 -0.1 l -2.5,-30.7 v 0 l -19.1,-71.6 -12.3,-24 v 0 l -5.1,-27.1 5.1,-17.3 12.3,-24 19.1,-71.6 2.5,-30.7 v -202.9 -0.1 l -2.5,-30.7 v 0 l -19.1,-71.6 -3,-5.8 -9.3,-18.2 -5.1,-27.1 5.1,-17.3 12.3,-24 19.1,-71.6 2.5,-30.7 v -202.9 -0.1 l -2.5,-30.7 v 0 l -19.1,-71.6 -12.3,-24 -5.1,-27.1 5.1,-17.3 12.3,-24 19.1,-71.6 2.5,-30.7 v -202.9 -0.1 l -2.5,-30.7 v 0 l -19.1,-71.6 -3,-5.8 -30.7,-60.2 v 0 l -46.6,-57.6 v 0 l -57.6,-46.7 v 0 l -21.7,-11.1 -44.3,-22.5 -71.6,-19.2 -30.8,-2.4 h -384.1 l -7.7,-0.6 -21,-3.4 h -42.7 l -26.4,-7.7 -8.1,-6.6 -1578.8,-1578.8 -48.2,-48.2 -55.2,-40.1 -60.8,-30.9 -64.8,-21.1 -67.4,-10.7 h -412.2 l -26.3,-7.7 -8.2,-6.6 -56.8,-56.8 v 0 l -57.9,-44.5 -11.8,-8.9 -76,-43.9 -81,-33.6 -84.8,-22.7 -87,-11.5 v 0 h -284.6 v 0 l -87,11.5 -84.8,22.7 -81.1,33.6 -76,43.9 -69.6,53.4 -62.1,62 -53.4,69.7 -43.9,76 -33.6,81 -22.7,84.8 -11.4,87 v 87.8 l 11.4,87 22.7,84.8 33.6,81 43.9,76.1 53.4,69.6 23.1,23.1 13.2,24.1 -2,27.5 -11.2,17.4 -23.1,23.1 -53.4,69.7 -43.9,76 -33.6,81 -22.7,84.8 -11.4,87 v 87.8 l 11.4,87 22.7,84.8 33.6,81 43.9,76.1 53.2,69.4 0.2,0.2 5.2,5.2 17.9,17.9 13.2,24.1 -2,27.5 -11.2,17.4 -23.1,23.1 -53.4,69.7 -43.9,76 -33.6,81 -22.7,84.8 -11.4,87 v 87.8 l 11.4,87 22.7,84.8 33.6,81 43.9,76.1 53.4,69.6 23.1,23.1 13.2,24.1 -2,27.5 -11.2,17.4 -23.1,23.1 -53.4,69.7 -43.9,76 -33.6,81 -22.7,84.8 -11.4,87 v 87.8 l 11.4,87 22.7,84.8 33.6,81 43.9,76.1 53.4,69.6 23.1,23.1 13.2,24.1 -2,27.5 -11.2,17.4 -23.1,23.1 -53.4,69.7 -43.9,76 -33.6,81 -22.7,84.8 -11.4,87 v 87.8 l 11.4,87 22.7,84.8 33.6,81 43.9,76.1 53.4,69.6 23.1,23.1 13.2,24.1 -2,27.5 -11.2,17.4 -23.1,23.1 -53.4,69.7 -43.9,76 -33.6,81 -22.7,84.8 -11.4,87 v 87.8 l 11.4,87 22.7,84.8 33.6,81 43.9,76.1 21.7,28.2 31.7,41.4 5.6,5.5 17.5,17.6 13.2,24.1 -2,27.5 -11.2,17.4 -23.1,23.1 -53.4,69.7 -43.9,76 -33.6,81 -22.7,84.8 -11.4,87 v 87.8 l 11.4,87 22.7,84.8 33.6,81 43.9,76.1 53.4,69.6 23.1,23.1 13.2,24.1 -2,27.5 -11.2,17.4 -23.1,23.1 -53.4,69.7 -43.9,76 -33.6,81 -22.7,84.8 -11.4,87 v 87.8 l 11.4,87 22.7,84.8 33.6,81 43.9,76.1 22.1,28.7 31.3,40.9 v 0 l 62.1,62 v 0 l 69.6,53.5 v 0 0 l 76,43.8 v 0 l 81.1,33.6 v 0 0 l 84.8,22.7 v 0 0 l 87,11.5 v 0 0 h 284.6 v 0 0 l 87,-11.5 v 0 0 l 84.8,-22.7 v 0 l 81,-33.6 v 0 l 76,-43.8 v 0 l 69.7,-53.5 28.4,-28.4 28.4,-28.4 24.2,-13.2 10.3,-1.1 h 387.8 l 15.6,-2.5 51.8,-8.2 64.8,-21.1 28.8,-14.6 27.7,-14.1 4.1,-2.2 h 0.2 v 0 l 41.3,-30.1 13.9,-10 v 0 0 l 1642.7,-1642.8 24.1,-13.2 10.4,-1.1 h 464.2 v 0 l 30.8,-2.4 71.6,-19.2 66,-33.6 v 0 l 57.6,-46.7 v 0 l 46.6,-57.6 v 0 l 33.7,-66 19.1,-71.6 2.5,-30.7 h 399.2 l 2.4,30.7 19.2,71.6 26.5,52.1 7.1,13.9 v 0 l 46.7,57.6 v 0 l 57.6,46.7 v 0 l 66,33.6 65.9,17.7 6.6,2.3 57.6,24.8 v 0 0 l 26.4,7.7 11.7,3.2 33.3,4 33.2,4.1 v 0 h 731 v 0 l 29.7,-1.6 10.3,-1.2 41.3,-7.6 37.8,-15 27.3,-2.6 24.5,12.7 13.7,23.8 -1.4,27.5 -7.4,13.7 -11.9,15.5 v 0 l -43.9,76 -33.5,81.1 -22.8,84.8 -11.4,87 v 87.7 l 11.4,87 22.8,84.8 4.4,10.7 25.9,62.5 3.2,7.9 43.9,76 20.1,26.1 33.3,43.5 v 0 l 62.1,62.1 v 0 l 69.6,53.4 v 0 0 l 76,43.9 v 0 l 81.1,33.6 v 0 0 l 84.8,22.7 v 0 0 l 87,11.4 v 0 0 h 284.6 v 0 0 l 87,-11.4 v 0 0 l 84.8,-22.7 v 0 l 81.1,-33.6 v 0 l 76,-43.9 v 0 l 69.6,-53.4 v 0 l 17.5,-17.5 24.1,-13.2 10.4,-1.1 h 316.5 l 26.3,7.7 18.1,20.8 4.4,20.3 v 741 0 l 2.5,27.8 19.9,63.9 34.7,57.3 v 0 0 l 47.3,47.4 57.3,34.6 64,20 v 0 0 l 19.4,1.7 8.4,0.8 h 1028.8 l 7.6,-0.7 20.2,-1.8 63.9,-20 57.3,-34.6 v 0 l 40.5,-40.4 24.1,-13.2 27.4,2 22.1,16.5 9.6,25.7 0.1,3.5 v 525.6 l -7.8,26.4 -20.8,18 -20.2,4.4 h -9547.7 l -26.4,-7.7" /><path
       id="path172"
       style="fill:#ffffff;fill-opacity:1;fill-rule:nonzero;stroke:none"
       d="m 81678.7,32396.9 -14.9,-7.6 -21.1,-10.7 -71.6,-19.2 -30.8,-2.4 h -11.5 l -26.4,-7.8 -18,-20.8 -4.4,-20.3 v -39.7 l 7.8,-26.4 20.7,-18 20.3,-4.4 h 426.7 l 26.4,7.7 18,20.8 3.9,27.2 -11.4,25.1 -12.5,10.3 -2.2,1.2 -20.4,11.8 -69.7,53.4 -1.4,1.5 -9.4,9.3 -24.1,13.2 -10.4,1.1 h -141.4 l -22.2,-5.3" /><path
       id="path174"
       style="fill:#ffffff;fill-opacity:1;fill-rule:nonzero;stroke:none"
       d="m 80752.4,33472.2 -18,-20.7 -4.4,-20.3 v -702.4 l 7.8,-26.4 20.7,-18 20.3,-4.4 h 1531 l 26.4,7.8 8.1,6.5 171.4,171.4 13.2,24.1 1.1,10.4 v 159.6 l -7.8,26.4 -6.5,8.1 -171.4,171.4 -24.1,13.2 -10.4,1.1 H 81730 l -185.7,185.7 -24.1,13.2 -10.4,1.1 h -731 l -26.4,-7.8" /><path
       id="path176"
       style="fill:#000000;fill-opacity:1;fill-rule:nonzero;stroke:#000000;stroke-width:0.0003937;stroke-linecap:round;stroke-linejoin:round;stroke-miterlimit:10;stroke-dasharray:none;stroke-opacity:1"
       d="m 82261.1,32980 c 0,38 30.9,68.9 68.9,68.9 38,0 68.9,-30.9 68.9,-68.9 0,-38 -30.9,-68.9 -68.9,-68.9 -38,0 -68.9,30.9 -68.9,68.9 z" /><path
       id="path178"
       style="fill:#000000;fill-opacity:1;fill-rule:nonzero;stroke:#000000;stroke-width:0.0003937;stroke-linecap:round;stroke-linejoin:round;stroke-miterlimit:10;stroke-dasharray:none;stroke-opacity:1"
       d="m 82261.1,29980 c 0,38 30.9,68.9 68.9,68.9 38,0 68.9,-30.9 68.9,-68.9 0,-38 -30.9,-68.9 -68.9,-68.9 -38,0 -68.9,30.9 -68.9,68.9 z" /><path
       id="path180"
       style="fill:#000000;fill-opacity:1;fill-rule:nonzero;stroke:#000000;stroke-width:0.0003937;stroke-linecap:round;stroke-linejoin:round;stroke-miterlimit:10;stroke-dasharray:none;stroke-opacity:1"
       d="m 82261.1,34195.7 c 0,38.1 30.9,68.9 68.9,68.9 38,0 68.9,-30.8 68.9,-68.9 0,-38 -30.9,-68.8 -68.9,-68.8 -38,0 -68.9,30.8 -68.9,68.8 z" /><path
       id="path182"
       style="fill:#000000;fill-opacity:1;fill-rule:nonzero;stroke:#000000;stroke-width:0.0003937;stroke-linecap:round;stroke-linejoin:round;stroke-miterlimit:10;stroke-dasharray:none;stroke-opacity:1"
       d="m 82261.1,35180 c 0,38 30.9,68.9 68.9,68.9 38,0 68.9,-30.9 68.9,-68.9 0,-38 -30.9,-68.9 -68.9,-68.9 -38,0 -68.9,30.9 -68.9,68.9 z" /><path
       id="path184"
       style="fill:#000000;fill-opacity:1;fill-rule:nonzero;stroke:#000000;stroke-width:0.0003937;stroke-linecap:round;stroke-linejoin:round;stroke-miterlimit:10;stroke-dasharray:none;stroke-opacity:1"
       d="m 83987.1,35042.2 c 0,38 30.9,68.9 68.9,68.9 38,0 68.9,-30.9 68.9,-68.9 0,-38 -30.9,-68.9 -68.9,-68.9 -38,0 -68.9,30.9 -68.9,68.9 z" /><path
       id="path186"
       style="fill:#000000;fill-opacity:1;fill-rule:nonzero;stroke:#000000;stroke-width:0.0003937;stroke-linecap:round;stroke-linejoin:round;stroke-miterlimit:10;stroke-dasharray:none;stroke-opacity:1"
       d="m 83987.1,34042.2 c 0,38 30.9,68.9 68.9,68.9 38,0 68.9,-30.9 68.9,-68.9 0,-38 -30.9,-68.9 -68.9,-68.9 -38,0 -68.9,30.9 -68.9,68.9 z" /><path
       id="path188"
       style="fill:#000000;fill-opacity:1;fill-rule:nonzero;stroke:#000000;stroke-width:0.0003937;stroke-linecap:round;stroke-linejoin:round;stroke-miterlimit:10;stroke-dasharray:none;stroke-opacity:1"
       d="m 83987.1,33042.2 c 0,38 30.9,68.9 68.9,68.9 38,0 68.9,-30.9 68.9,-68.9 0,-38 -30.9,-68.9 -68.9,-68.9 -38,0 -68.9,30.9 -68.9,68.9 z" /><path
       id="path190"
       style="fill:#000000;fill-opacity:1;fill-rule:nonzero;stroke:#000000;stroke-width:0.0003937;stroke-linecap:round;stroke-linejoin:round;stroke-miterlimit:10;stroke-dasharray:none;stroke-opacity:1"
       d="m 83987.1,32042.2 c 0,38 30.9,68.9 68.9,68.9 38,0 68.9,-30.9 68.9,-68.9 0,-38 -30.9,-68.9 -68.9,-68.9 -38,0 -68.9,30.9 -68.9,68.9 z" /><path
       id="path192"
       style="fill:#000000;fill-opacity:1;fill-rule:nonzero;stroke:#000000;stroke-width:0.0003937;stroke-linecap:round;stroke-linejoin:round;stroke-miterlimit:10;stroke-dasharray:none;stroke-opacity:1"
       d="m 83987.1,31042.2 c 0,38 30.9,68.9 68.9,68.9 38,0 68.9,-30.9 68.9,-68.9 0,-38 -30.9,-68.9 -68.9,-68.9 -38,0 -68.9,30.9 -68.9,68.9 z" /><path
       id="path194"
       style="fill:#000000;fill-opacity:1;fill-rule:nonzero;stroke:#000000;stroke-width:0.0003937;stroke-linecap:round;stroke-linejoin:round;stroke-miterlimit:10;stroke-dasharray:none;stroke-opacity:1"
       d="m 83987.1,30042.2 c 0,38 30.9,68.9 68.9,68.9 38,0 68.9,-30.9 68.9,-68.9 0,-38 -30.9,-68.9 -68.9,-68.9 -38,0 -68.9,30.9 -68.9,68.9 z" /><path
       id="path196"
       style="fill:#000000;fill-opacity:1;fill-rule:nonzero;stroke:#000000;stroke-width:0.0003937;stroke-linecap:round;stroke-linejoin:round;stroke-miterlimit:10;stroke-dasharray:none;stroke-opacity:1"
       d="m 83987.1,29042.2 c 0,38 30.9,68.9 68.9,68.9 38,0 68.9,-30.9 68.9,-68.9 0,-38 -30.9,-68.9 -68.9,-68.9 -38,0 -68.9,30.9 -68.9,68.9 z" /><path
       id="path198"
       style="fill:#000000;fill-opacity:1;fill-rule:nonzero;stroke:#000000;stroke-width:0.0003937;stroke-linecap:round;stroke-linejoin:round;stroke-miterlimit:10;stroke-dasharray:none;stroke-opacity:1"
       d="m 83987.1,28042.2 c 0,38 30.9,68.9 68.9,68.9 38,0 68.9,-30.9 68.9,-68.9 0,-38 -30.9,-68.9 -68.9,-68.9 -38,0 -68.9,30.9 -68.9,68.9 z" /><path
       id="path200"
       style="fill:#000000;fill-opacity:1;fill-rule:nonzero;stroke:#000000;stroke-width:0.0003937;stroke-linecap:round;stroke-linejoin:round;stroke-miterlimit:10;stroke-dasharray:none;stroke-opacity:1"
       d="m 76113.1,35042.2 c 0,38 30.9,68.9 68.9,68.9 38,0 68.9,-30.9 68.9,-68.9 0,-38 -30.9,-68.9 -68.9,-68.9 -38,0 -68.9,30.9 -68.9,68.9 z" /><path
       id="path202"
       style="fill:#000000;fill-opacity:1;fill-rule:nonzero;stroke:#000000;stroke-width:0.0003937;stroke-linecap:round;stroke-linejoin:round;stroke-miterlimit:10;stroke-dasharray:none;stroke-opacity:1"
       d="m 76113.1,34042.2 c 0,38 30.9,68.9 68.9,68.9 38,0 68.9,-30.9 68.9,-68.9 0,-38 -30.9,-68.9 -68.9,-68.9 -38,0 -68.9,30.9 -68.9,68.9 z" /><path
       id="path204"
       style="fill:#000000;fill-opacity:1;fill-rule:nonzero;stroke:#000000;stroke-width:0.0003937;stroke-linecap:round;stroke-linejoin:round;stroke-miterlimit:10;stroke-dasharray:none;stroke-opacity:1"
       d="m 76113.1,33042.2 c 0,38 30.9,68.9 68.9,68.9 38,0 68.9,-30.9 68.9,-68.9 0,-38 -30.9,-68.9 -68.9,-68.9 -38,0 -68.9,30.9 -68.9,68.9 z" /><path
       id="path206"
       style="fill:#000000;fill-opacity:1;fill-rule:nonzero;stroke:#000000;stroke-width:0.0003937;stroke-linecap:round;stroke-linejoin:round;stroke-miterlimit:10;stroke-dasharray:none;stroke-opacity:1"
       d="m 76113.1,32042.2 c 0,38 30.9,68.9 68.9,68.9 38,0 68.9,-30.9 68.9,-68.9 0,-38 -30.9,-68.9 -68.9,-68.9 -38,0 -68.9,30.9 -68.9,68.9 z" /><path
       id="path208"
       style="fill:#000000;fill-opacity:1;fill-rule:nonzero;stroke:#000000;stroke-width:0.0003937;stroke-linecap:round;stroke-linejoin:round;stroke-miterlimit:10;stroke-dasharray:none;stroke-opacity:1"
       d="m 76113.1,31042.2 c 0,38 30.9,68.9 68.9,68.9 38,0 68.9,-30.9 68.9,-68.9 0,-38 -30.9,-68.9 -68.9,-68.9 -38,0 -68.9,30.9 -68.9,68.9 z" /><path
       id="path210"
       style="fill:#000000;fill-opacity:1;fill-rule:nonzero;stroke:#000000;stroke-width:0.0003937;stroke-linecap:round;stroke-linejoin:round;stroke-miterlimit:10;stroke-dasharray:none;stroke-opacity:1"
       d="m 76113.1,30042.2 c 0,38 30.9,68.9 68.9,68.9 38,0 68.9,-30.9 68.9,-68.9 0,-38 -30.9,-68.9 -68.9,-68.9 -38,0 -68.9,30.9 -68.9,68.9 z" /><path
       id="path212"
       style="fill:#000000;fill-opacity:1;fill-rule:nonzero;stroke:#000000;stroke-width:0.0003937;stroke-linecap:round;stroke-linejoin:round;stroke-miterlimit:10;stroke-dasharray:none;stroke-opacity:1"
       d="m 76113.1,29042.2 c 0,38 30.9,68.9 68.9,68.9 38,0 68.9,-30.9 68.9,-68.9 0,-38 -30.9,-68.9 -68.9,-68.9 -38,0 -68.9,30.9 -68.9,68.9 z" /><path
       id="path214"
       style="fill:#000000;fill-opacity:1;fill-rule:nonzero;stroke:#000000;stroke-width:0.0003937;stroke-linecap:round;stroke-linejoin:round;stroke-miterlimit:10;stroke-dasharray:none;stroke-opacity:1"
       d="m 76113.1,28042.2 c 0,38 30.9,68.9 68.9,68.9 38,0 68.9,-30.9 68.9,-68.9 0,-38 -30.9,-68.9 -68.9,-68.9 -38,0 -68.9,30.9 -68.9,68.9 z" /><path
       id="path216"
       style="fill:none;stroke:#ffffff;stroke-width:19.68499947;stroke-linecap:round;stroke-linejoin:round;stroke-miterlimit:10;stroke-dasharray:none;stroke-opacity:1"
       d="M 85040.2,36420.2 H 75000.9 v -9645.7 h 10039.3 v 9645.7" /></g></svg>